<svg width="40" height="40" viewBox="0 0 40 40" fill="none" xmlns="http://www.w3.org/2000/svg">
<path d="M22.942 23.6507C22.82 23.0714 22.6121 22.5116 22.3244 21.988C22.0136 21.4084 21.6513 20.8552 21.2413 20.3343C21.018 20.0452 20.7663 19.7787 20.5668 19.5302C20.3673 19.2817 20.1772 19.1145 19.9824 18.9247C19.7877 18.7349 19.5502 18.5316 19.3174 18.3374C19.0846 18.1431 18.7949 17.9172 18.5051 17.7093C17.9665 17.3156 17.3945 16.965 16.7949 16.6611C16.2571 16.3826 15.6793 16.1802 15.08 16.0602C14.5764 15.9523 14.0503 15.99 13.5694 16.1686C13.0772 16.3866 12.6962 16.7815 12.5101 17.2666L7.22287 28.3857C7.03358 28.7606 6.96263 29.1796 7.01861 29.592C7.06981 29.9421 7.23608 30.2679 7.49365 30.5228C7.75898 30.7687 8.10035 30.9271 8.46747 30.9746C8.89213 31.0388 9.32729 30.9806 9.71683 30.8074L21.7259 26.0227C21.9691 25.944 22.1926 25.8183 22.3822 25.6534C22.5719 25.4886 22.7237 25.2882 22.828 25.0649C23.0083 24.6137 23.0478 24.1227 22.942 23.6507ZM21.0845 24.3419C20.9373 24.4865 20.657 24.5001 20.2342 24.3826C19.687 24.2025 19.1713 23.9451 18.7046 23.619C17.9966 23.147 17.3366 22.613 16.7332 22.0241C16.1174 21.453 15.5591 20.8283 15.0658 20.1581C14.7227 19.7127 14.4521 19.2208 14.263 18.6988C14.1395 18.2967 14.149 18.0256 14.2962 17.8856C14.4435 17.7455 14.719 17.7409 15.1371 17.8584C15.685 18.0402 16.202 18.2975 16.6714 18.622C17.1253 18.9253 17.5585 19.2558 17.9683 19.6115C18.1916 19.8012 18.4148 20 18.6428 20.2169C18.8709 20.4337 19.0466 20.61 19.2319 20.7997C19.6236 21.206 19.987 21.6361 20.3197 22.0874C20.6557 22.5339 20.9228 23.0238 21.113 23.5422C21.2366 23.9398 21.2271 24.2064 21.0845 24.3419Z" fill="#AE5EFE"/>
<path d="M16.0104 18.1924C16.533 17.2225 16.7853 16.2468 16.7504 15.331C16.7156 14.4152 16.3943 13.5804 15.8082 12.8828" stroke="#D3B1F4" stroke-width="2" stroke-miterlimit="10" stroke-linecap="round"/>
<path d="M20.9455 22.6818C21.5678 22.3511 22.2549 22.1565 22.9607 22.111C23.6664 22.0655 24.3744 22.1702 25.0368 22.4181" stroke="#D3B1F4" stroke-width="2" stroke-miterlimit="10" stroke-linecap="round"/>
<path d="M21.7899 13.9148C21.7359 13.865 21.7011 13.7977 21.6915 13.7249C21.6193 13.3384 21.5471 13.0175 21.4814 12.7555C21.4246 12.5251 21.3339 12.3044 21.2123 12.1005C21.1095 11.9399 20.9729 11.8035 20.8118 11.701C20.6194 11.5914 20.4113 11.5119 20.1948 11.4652C19.9519 11.4063 19.6434 11.3473 19.2823 11.2949C19.2039 11.2861 19.1315 11.2487 19.0788 11.1901C19.0533 11.1641 19.0333 11.1335 19.0197 11.0997C19.0062 11.066 18.9995 11.03 19 10.9936C18.9994 10.9184 19.0275 10.8457 19.0788 10.7906C19.1315 10.7319 19.2039 10.6946 19.2823 10.6857C19.598 10.6545 19.9115 10.6042 20.2211 10.5351C20.4523 10.4892 20.6741 10.4051 20.8775 10.2862C21.0421 10.1853 21.1795 10.0459 21.2779 9.88011C21.3939 9.6757 21.4781 9.45483 21.5274 9.22513C21.593 8.96968 21.6521 8.64877 21.7112 8.27543C21.7167 8.19953 21.7521 8.12886 21.8097 8.0789C21.8362 8.05235 21.868 8.03168 21.903 8.01814C21.9381 8.0046 21.9756 7.99851 22.0131 8.00031C22.0486 7.99993 22.0837 8.00671 22.1164 8.02022C22.1491 8.03372 22.1787 8.05367 22.2035 8.0789C22.2609 8.1298 22.2982 8.19952 22.3086 8.27543C22.3623 8.5997 22.4324 8.92103 22.5186 9.23824C22.5722 9.46865 22.6607 9.68954 22.7812 9.89323C22.8839 10.0539 23.0206 10.1902 23.1816 10.2928C23.3741 10.4037 23.5821 10.4853 23.7987 10.5351C24.0481 10.594 24.3567 10.6464 24.7177 10.6988C24.7947 10.7121 24.8658 10.7487 24.9212 10.8037C24.9725 10.8588 25.0007 10.9314 25 11.0067C24.9994 11.0817 24.9714 11.1539 24.9212 11.2098C24.8687 11.2676 24.7957 11.3028 24.7177 11.308C24.4001 11.3443 24.0846 11.3968 23.7724 11.4652C23.541 11.5069 23.3188 11.5889 23.116 11.7075C22.9511 11.8109 22.8138 11.9525 22.7156 12.1202C22.5976 12.3244 22.5113 12.5452 22.4595 12.7752C22.4005 13.0372 22.3348 13.3515 22.2823 13.7314C22.2727 13.8043 22.2379 13.8715 22.1838 13.9214C22.1306 13.9716 22.0602 13.9997 21.9869 14C21.9129 13.9973 21.8426 13.9669 21.7899 13.9148Z" fill="#AE5EFE"/>
<path d="M28.7199 17.8865C28.6478 17.8199 28.6014 17.7303 28.5887 17.6332C28.4924 17.1179 28.3961 16.69 28.3086 16.3407C28.2328 16.0335 28.1118 15.7392 27.9497 15.4674C27.8127 15.2532 27.6305 15.0714 27.4158 14.9347C27.1593 14.7885 26.8818 14.6825 26.593 14.6203C26.2692 14.5417 25.8578 14.4631 25.3764 14.3932C25.2719 14.3814 25.1753 14.3317 25.1051 14.2534C25.0711 14.2189 25.0443 14.178 25.0263 14.133C25.0083 14.088 24.9993 14.0399 25 13.9915C24.9991 13.8912 25.0367 13.7943 25.1051 13.7207C25.1753 13.6425 25.2719 13.5928 25.3764 13.581C25.7974 13.5394 26.2153 13.4723 26.6281 13.3801C26.9363 13.319 27.2322 13.2068 27.5033 13.0483C27.7228 12.9138 27.906 12.7279 28.0372 12.5068C28.1919 12.2343 28.3041 11.9398 28.3698 11.6335C28.4574 11.2929 28.5361 10.865 28.6149 10.3672C28.6223 10.266 28.6695 10.1718 28.7462 10.1052C28.7816 10.0698 28.824 10.0422 28.8707 10.0242C28.9175 10.0061 28.9675 9.99801 29.0175 10.0004C29.0647 9.9999 29.1116 10.0089 29.1552 10.027C29.1988 10.045 29.2383 10.0716 29.2713 10.1052C29.3479 10.1731 29.3976 10.266 29.4114 10.3672C29.4831 10.7996 29.5766 11.228 29.6915 11.651C29.7629 11.9582 29.8809 12.2527 30.0416 12.5243C30.1786 12.7385 30.3608 12.9203 30.5755 13.057C30.8321 13.2049 31.1094 13.3138 31.3982 13.3801C31.7308 13.4587 32.1422 13.5286 32.6236 13.5985C32.7263 13.6162 32.821 13.665 32.895 13.7382C32.9633 13.8118 33.0009 13.9086 33 14.0089C32.9992 14.1089 32.9619 14.2052 32.895 14.2797C32.8249 14.3567 32.7277 14.4037 32.6236 14.4107C32.2002 14.4591 31.7795 14.529 31.3632 14.6203C31.0547 14.6759 30.7585 14.7852 30.488 14.9434C30.2682 15.0812 30.085 15.2699 29.9541 15.4936C29.7968 15.7659 29.6817 16.0603 29.6127 16.3669C29.5339 16.7162 29.4464 17.1354 29.3764 17.6419C29.3636 17.739 29.3172 17.8287 29.2451 17.8952C29.1741 17.9621 29.0802 17.9996 28.9825 18C28.8838 17.9963 28.7901 17.9558 28.7199 17.8865Z" fill="#AE5EFE"/>
<path d="M22.86 19.9432C22.8239 19.91 22.8007 19.8652 22.7943 19.8166C22.7462 19.559 22.698 19.345 22.6543 19.1703C22.6164 19.0168 22.5559 18.8696 22.4748 18.7337C22.4063 18.6266 22.3152 18.5357 22.2079 18.4673C22.0796 18.3942 21.9409 18.3412 21.7965 18.3101C21.6346 18.2708 21.4289 18.2315 21.1882 18.1966C21.1359 18.1907 21.0876 18.1658 21.0525 18.1267C21.0355 18.1094 21.0222 18.089 21.0132 18.0665C21.0041 18.044 20.9997 18.02 21 17.9958C20.9996 17.9456 21.0184 17.8971 21.0525 17.8604C21.0876 17.8213 21.1359 17.7964 21.1882 17.7905C21.3987 17.7697 21.6077 17.7362 21.814 17.6901C21.9682 17.6595 22.1161 17.6034 22.2517 17.5241C22.3614 17.4569 22.453 17.364 22.5186 17.2534C22.596 17.1171 22.652 16.9699 22.6849 16.8168C22.7287 16.6465 22.7681 16.4325 22.8074 16.1836C22.8111 16.133 22.8347 16.0859 22.8731 16.0526C22.8908 16.0349 22.912 16.0211 22.9354 16.0121C22.9587 16.0031 22.9837 15.999 23.0088 16.0002C23.0324 16 23.0558 16.0045 23.0776 16.0135C23.0994 16.0225 23.1191 16.0358 23.1357 16.0526C23.1739 16.0865 23.1988 16.133 23.2057 16.1836C23.2415 16.3998 23.2883 16.614 23.3458 16.8255C23.3814 16.9791 23.4405 17.1264 23.5208 17.2622C23.5893 17.3693 23.6804 17.4602 23.7877 17.5285C23.9161 17.6024 24.0547 17.6569 24.1991 17.6901C24.3654 17.7294 24.5711 17.7643 24.8118 17.7992C24.8631 17.8081 24.9105 17.8325 24.9475 17.8691C24.9817 17.9059 25.0004 17.9543 25 18.0044C24.9996 18.0544 24.9809 18.1026 24.9475 18.1398C24.9125 18.1784 24.8638 18.2019 24.8118 18.2053C24.6001 18.2295 24.3898 18.2645 24.1816 18.3101C24.0274 18.3379 23.8792 18.3926 23.744 18.4717C23.6341 18.5406 23.5425 18.635 23.477 18.7468C23.3984 18.8829 23.3409 19.0302 23.3064 19.1835C23.267 19.3581 23.2232 19.5677 23.1882 19.821C23.1818 19.8695 23.1586 19.9143 23.1226 19.9476C23.087 19.9811 23.0401 19.9998 22.9913 20C22.9419 19.9982 22.895 19.9779 22.86 19.9432Z" fill="#AE5EFE"/>
</svg>
