<svg width="40" height="40" viewBox="0 0 40 40" fill="none" xmlns="http://www.w3.org/2000/svg">
<path fill-rule="evenodd" clip-rule="evenodd" d="M10.6523 20.7135C10.6523 25.6611 14.5112 29.6709 19.2705 29.6709C24.0308 29.6709 27.8896 25.6611 27.8896 20.7135C27.8896 15.7659 24.0308 11.7561 19.2705 11.7561C14.5112 11.7561 10.6523 15.7659 10.6523 20.7135Z" fill="#FFCF3B"/>
<path d="M13.3042 20.0244H20.8044V20.4719C20.8044 22.3773 19.2598 23.9219 17.3544 23.9219H16.7542C14.8488 23.9219 13.3042 22.3773 13.3042 20.4719V20.0244Z" fill="#666060"/>
<path d="M20.8042 20.0244H28.3044V20.4719C28.3044 22.3773 26.7598 23.9219 24.8544 23.9219H24.2542C22.3488 23.9219 20.8042 22.3773 20.8042 20.4719V20.0244Z" fill="#666060"/>
<rect x="8" y="15.8905" width="23.8671" height="2.75612" rx="1.37806" fill="#666060"/>
<path d="M12.8611 10.91L10.6519 17.2684H27.8892L25.6799 10.91C25.3146 9.85852 24.1611 9.30767 23.1137 9.68448L19.2705 11.0671L15.4274 9.68448C14.38 9.30767 13.2264 9.85852 12.8611 10.91Z" fill="#666060" stroke="#666060"/>
<rect width="1.5" height="8.22476" rx="0.75" transform="matrix(-0.921197 0.389097 0.364188 0.931325 9.91016 23.1379)" fill="#979797"/>
<path d="M9.48368 29.9824C9.98652 31.2683 11.4252 31.8752 12.6971 31.338C13.9691 30.8008 14.5925 29.3228 14.0897 28.0369C13.5868 26.751 12.1481 26.1441 10.8762 26.6814C9.6043 27.2186 8.98085 28.6965 9.48368 29.9824Z" fill="#FFCF3B"/>
<path d="M4.43816 21.7298C5.25947 23.8301 7.54572 24.8096 9.52075 23.9754C11.4958 23.1412 12.4763 20.7818 11.655 18.6815C10.8337 16.5812 8.54747 15.6016 6.57245 16.4358C4.59742 17.2701 3.61686 19.6295 4.43816 21.7298Z" fill="white" stroke="#979797" stroke-width="1.5"/>
<path fill-rule="evenodd" clip-rule="evenodd" d="M20.6677 24.2507C20.7976 24.2057 20.9331 24.3022 20.9331 24.4397V25.2368C20.9331 25.4025 20.7988 25.5368 20.6331 25.5368H18.1436C17.918 25.5368 17.865 25.2216 18.0781 25.1478L20.6677 24.2507Z" fill="#666060"/>
<path fill-rule="evenodd" clip-rule="evenodd" d="M21.4637 24.2507C21.3338 24.2057 21.1982 24.3022 21.1982 24.4397V25.2368C21.1982 25.4025 21.3325 25.5368 21.4982 25.5368H23.9878C24.2133 25.5368 24.2664 25.2216 24.0533 25.1478L21.4637 24.2507Z" fill="#666060"/>
<path d="M35.8887 21.9214L26.2998 21.9214C25.5818 21.9214 24.9998 22.5034 24.9998 23.2214L24.9998 24.2547L35.8887 24.2547L35.8887 21.9214Z" fill="#5FD84A"/>
<path d="M25.7773 24.2547C25.7773 25.1139 26.4738 25.8103 27.3329 25.8103H34.4107C34.7973 25.8103 35.1107 25.4969 35.1107 25.1103V24.2547H25.7773V24.2547Z" fill="#5FD84A"/>
<path d="M25.8859 28.4346L26.5556 25.4214L28.5 25.4214L27.7918 28.6082C27.7512 28.7912 27.5888 28.9214 27.4014 28.9214L26.2764 28.9214C26.0205 28.9214 25.8304 28.6844 25.8859 28.4346Z" fill="#5FD84A" stroke="#5FD84A" stroke-linecap="round"/>
<path d="M30.4443 25.0325V25.0325C30.4443 26.0757 29.5986 26.9214 28.5554 26.9214L28.111 26.9214" stroke="#5FD84A" stroke-linecap="round"/>
<path d="M24.9104 30.1952C25.4133 31.4811 26.852 32.088 28.1239 31.5508C29.3958 31.0135 30.0193 29.5356 29.5164 28.2497C29.0136 26.9638 27.5749 26.3569 26.303 26.8941C25.0311 27.4314 24.4076 28.9093 24.9104 30.1952Z" fill="#FFCF3B"/>
<path d="M35.8501 21.9214V21.9214C36.4024 21.9214 36.8501 22.3691 36.8501 22.9214V23.2514C36.8501 23.8037 36.4024 24.2514 35.8501 24.2514V24.2514V21.9214Z" fill="#B46032"/>
<path opacity="0.8" d="M26.2002 24.4714C26.2002 24.3334 26.3121 24.2214 26.4502 24.2214H34.4502C34.5883 24.2214 34.7002 24.3334 34.7002 24.4714V24.4714C34.7002 24.6095 34.5883 24.7214 34.4502 24.7214H26.4502C26.3121 24.7214 26.2002 24.6095 26.2002 24.4714V24.4714Z" fill="#FAFAFA"/>
</svg>
