<svg width="40" height="40" viewBox="0 0 40 40" fill="none" xmlns="http://www.w3.org/2000/svg">
<path fill-rule="evenodd" clip-rule="evenodd" d="M23.96 9C27.3624 9 31 11.4355 31 15.561C31 18.2125 29.4088 20.2407 28.0476 21.6422C26.659 23.0718 24.7525 24.5876 22.7641 26.1684C22.7259 26.1988 22.6876 26.2292 22.6493 26.2597C22.6361 26.2707 22.6222 26.2822 22.6077 26.2941C22.5264 26.3605 22.406 26.4545 22.2555 26.5556C22.1146 26.6502 21.8818 26.7956 21.5794 26.9277C21.3139 27.0437 20.7478 27.2609 20.0033 27.2609C19.2037 27.2609 18.6046 27.0086 18.36 26.896C18.0637 26.7596 17.836 26.612 17.7025 26.5196C17.5581 26.4198 17.4423 26.3275 17.3649 26.2633C17.3561 26.256 17.3475 26.2488 17.3392 26.2418C17.3081 26.2172 17.2771 26.1926 17.2461 26.168C15.2598 24.5934 13.3489 23.0785 11.956 21.6461C10.5941 20.2456 9 18.2154 9 15.561C9 11.435 12.6389 9 16.04 9C17.4056 9 18.7947 9.36426 20.0002 10.0723C21.2055 9.36456 22.5942 9 23.96 9ZM19.681 23.4305C19.681 23.4305 19.874 23.6087 20.0033 23.6087C20.1334 23.6087 20.3109 23.4459 20.3109 23.4459L20.3253 23.4344C24.5577 20.0689 27.3333 17.8619 27.3333 15.561C27.3333 13.9294 25.8518 12.6522 23.96 12.6522C22.8777 12.6522 21.8079 13.0846 21.1019 13.8113C20.8232 14.0969 20.4218 14.2604 19.9996 14.2604C19.5782 14.2604 19.1768 14.0969 18.8981 13.8113C18.1928 13.0846 17.1231 12.6522 16.04 12.6522C14.1489 12.6522 12.6667 13.9294 12.6667 15.561C12.6667 17.8685 15.4567 20.0813 19.681 23.4305Z" fill="#FFD6D5"/>
<path fill-rule="evenodd" clip-rule="evenodd" d="M23.9574 12.6521C25.8492 12.6521 27.3307 13.9293 27.3307 15.5609C27.3307 17.8644 24.5488 20.0739 20.3083 23.4458C20.3083 23.4458 20.1308 23.6086 20.0007 23.6086C19.8713 23.6086 19.6784 23.4305 19.6784 23.4305C15.4541 20.0812 12.6641 17.8684 12.6641 15.5609C12.6641 13.9293 14.1463 12.6521 16.0374 12.6521C17.1205 12.6521 18.1902 13.0845 18.8955 13.8112C19.1742 14.0968 19.5756 14.2603 19.997 14.2603C20.4192 14.2603 20.8206 14.0968 21.0993 13.8112C21.8053 13.0845 22.8751 12.6521 23.9574 12.6521Z" fill="#FF87A4"/>
<path d="M15.7111 22.6562C20.7288 27.2477 24.9748 29.3243 30.7977 30.0396" stroke="#FFD6D5" stroke-width="3.7" stroke-linecap="round" stroke-linejoin="round"/>
<path d="M24.1327 22.7261C19.0751 27.2737 14.8112 29.3132 8.98232 29.9776" stroke="#FFD6D5" stroke-width="3.7" stroke-linecap="round" stroke-linejoin="round"/>
</svg>
