<svg width="48" height="48" viewBox="0 0 48 48" fill="none" xmlns="http://www.w3.org/2000/svg">
<path d="M16.3866 33.141C16.3031 32.6726 16.3484 32.19 16.5176 31.746L17.3577 27.4623L13.9192 23.3095C13.5321 23.0306 13.2113 22.6675 12.9803 22.2467C12.8992 22.0542 12.8574 21.847 12.8574 21.6377C12.8574 21.4284 12.8992 21.2213 12.9803 21.0289C13.0396 20.8298 13.1378 20.6448 13.2691 20.485C13.4004 20.3252 13.5621 20.1939 13.7445 20.0988C14.1563 19.8852 14.614 19.7788 15.0764 19.7889L19.6066 18.8468L22.1729 14.5188C22.3131 14.0601 22.5603 13.6422 22.8935 13.3008C23.0361 13.1555 23.2066 13.0414 23.3943 12.9653C23.582 12.8891 23.7831 12.8526 23.9852 12.8581C24.1908 12.8509 24.3957 12.8864 24.5872 12.9626C24.7787 13.0387 24.9529 13.1538 25.0988 13.3008C25.4331 13.6376 25.674 14.0577 25.7976 14.5188L28.3857 18.8468L32.894 19.7889C33.3635 19.7788 33.8282 19.8851 34.2478 20.0988C34.4302 20.1939 34.5919 20.3252 34.7232 20.485C34.8545 20.6448 34.9527 20.8298 35.012 21.0289C35.0984 21.2199 35.1431 21.4275 35.1431 21.6377C35.1431 21.8479 35.0984 22.0556 35.012 22.2467C34.7966 22.6717 34.4817 23.0366 34.095 23.3095L30.6565 27.4623L31.4747 31.746C31.6502 32.1882 31.703 32.6706 31.6276 33.141C31.5526 33.5562 31.3267 33.9277 30.9944 34.1818C30.6662 34.4415 30.2508 34.5607 29.8371 34.5139C29.3661 34.4238 28.924 34.2185 28.5488 33.916L24.1818 31.5809L19.8147 33.916C19.4396 34.2185 18.9974 34.4238 18.5264 34.5139C18.1127 34.5607 17.6974 34.4415 17.3692 34.1818C17.1397 34.0929 16.9323 33.9534 16.7624 33.7734C16.5925 33.5934 16.4642 33.3774 16.3866 33.141Z" fill="#FFDA15"/>
<path d="M20.1933 28.2102C20.1515 27.9862 20.1742 27.7554 20.2588 27.5431L20.6788 25.4943L18.9596 23.5082C18.766 23.3748 18.6056 23.2012 18.4901 22.9999C18.4496 22.9079 18.4287 22.8088 18.4287 22.7087C18.4287 22.6086 18.4496 22.5095 18.4901 22.4175C18.5198 22.3223 18.5689 22.2338 18.6345 22.1574C18.7002 22.081 18.781 22.0181 18.8722 21.9726C19.0782 21.8705 19.307 21.8196 19.5382 21.8244L21.8033 21.3739L23.0864 19.304C23.1565 19.0846 23.2801 18.8847 23.4467 18.7215C23.5181 18.652 23.6033 18.5974 23.6971 18.561C23.791 18.5245 23.8915 18.5071 23.9926 18.5097C24.0954 18.5063 24.1978 18.5233 24.2936 18.5597C24.3894 18.5961 24.4764 18.6512 24.5494 18.7215C24.7165 18.8825 24.837 19.0835 24.8988 19.304L26.1928 21.3739L28.447 21.8244C28.6817 21.8196 28.9141 21.8705 29.1239 21.9726C29.2151 22.0181 29.296 22.081 29.3616 22.1574C29.4272 22.2338 29.4763 22.3223 29.506 22.4175C29.5492 22.5089 29.5716 22.6081 29.5716 22.7087C29.5716 22.8092 29.5492 22.9085 29.506 22.9999C29.3983 23.2032 29.2409 23.3777 29.0475 23.5082L27.3282 25.4943L27.7373 27.5431C27.8251 27.7545 27.8515 27.9853 27.8138 28.2102C27.7763 28.4088 27.6633 28.5865 27.4972 28.708C27.3331 28.8322 27.1254 28.8892 26.9185 28.8668C26.683 28.8237 26.462 28.7256 26.2744 28.5809L24.0909 27.4641L21.9074 28.5809C21.7198 28.7256 21.4987 28.8237 21.2632 28.8668C21.0563 28.8892 20.8487 28.8322 20.6846 28.708C20.5698 28.6655 20.4662 28.5988 20.3812 28.5127C20.2962 28.4266 20.2321 28.3233 20.1933 28.2102Z" fill="#FFB84E"/>
</svg>
