<svg width="40" height="40" viewBox="0 0 40 40" fill="none" xmlns="http://www.w3.org/2000/svg">
<rect x="7" y="8" width="15.1667" height="15.2727" rx="4" fill="#FEEBEA"/>
<rect x="17.8359" y="16.7273" width="15.1667" height="15.2727" rx="4" fill="#EBF5FA"/>
<path d="M21.8438 28.7272L24.6821 21.0908H26.1663L28.9938 28.7272H27.6613L26.9463 26.8399H23.8371L23.1329 28.7272H21.8438ZM24.1838 25.7708H26.5996L25.3863 22.4435L24.1838 25.7708Z" fill="#3498D0"/>
<path d="M16.0813 13.9084H13.048C13.412 14.8509 13.9233 15.6887 14.5907 16.3956C15.2147 15.7149 15.7087 14.8858 16.0813 13.9084ZM18.5427 13.9084H17.2947C16.8267 15.1913 16.194 16.256 15.3967 17.1287C16.2893 17.8182 17.3813 18.3331 18.6987 18.6298C18.4473 18.8829 18.118 19.3716 17.962 19.6684C16.5667 19.3105 15.44 18.7258 14.53 17.9491C13.5853 18.7084 12.4673 19.2756 11.15 19.6945C11.0287 19.424 10.708 18.9353 10.5 18.6822C11.7827 18.3418 12.866 17.8444 13.7413 17.1724C12.9613 16.2735 12.3633 15.1825 11.8953 13.9084H10.656V12.896H14.0533V11.5171H15.102V12.896H18.5427V13.9084Z" fill="#F43630"/>
</svg>
