<svg width="40" height="40" viewBox="0 0 40 40" fill="none" xmlns="http://www.w3.org/2000/svg">
<path d="M9.85938 8.3811L12.4048 10.4369" stroke="#C6D726" stroke-width="2" stroke-linecap="round"/>
<path d="M8.71875 13.658L12.0675 13.6264" stroke="#C6D726" stroke-width="2" stroke-linecap="round"/>
<path d="M9.86719 18.7542L12.2976 16.4836" stroke="#C6D726" stroke-width="2" stroke-linecap="round"/>
<path d="M30.6641 8.38135L28.1187 10.4372" stroke="#C6D726" stroke-width="2" stroke-linecap="round"/>
<path d="M31.8047 13.658L28.4559 13.6264" stroke="#C6D726" stroke-width="2" stroke-linecap="round"/>
<path d="M30.6562 18.7544L28.2258 16.4839" stroke="#C6D726" stroke-width="2" stroke-linecap="round"/>
<path d="M17.5974 15.5939L16.77 9.60013C16.6909 9.02748 16.1916 8.62202 15.6593 8.69819C15.1269 8.77436 14.7567 9.30423 14.8358 9.87688L14.6015 19.9448C14.5827 20.7261 14.2542 21.4593 13.6935 21.9531L9.80319 25.3955L12.3355 29.6805L14.5138 27.797C14.9135 27.4479 15.4103 27.2454 15.9258 27.2106L16.3245 27.1827C16.9921 27.1358 17.6164 26.8081 18.0531 26.2687L19.0117 25.0853C19.4907 24.4912 19.7029 23.7017 19.5948 22.919L18.7094 16.5054C18.6304 15.9327 18.1311 15.5272 17.5987 15.6034C17.0664 15.6796 16.6962 16.2095 16.7752 16.7821L17.405 21.3442" fill="#FFCEBF"/>
<path d="M16.7878 20.9266L16.2654 17.1422C16.1706 16.4557 16.6499 15.8196 17.3359 15.7214V15.7214" stroke="#D2A394" stroke-linecap="round"/>
<path d="M8.63305 25.5334C8.29637 25.0971 8.37533 24.465 8.8094 24.1217L9.74813 23.3791C10.6163 22.6923 11.8659 22.843 12.5393 23.7156L15.2431 27.2196C15.9164 28.0922 15.7585 29.3563 14.8904 30.0431L13.9516 30.7857C13.5176 31.129 12.8927 31.0537 12.5561 30.6174L8.63305 25.5334Z" fill="#B2C21D"/>
<path d="M22.4026 15.5939L23.23 9.60013C23.3091 9.02748 23.8084 8.62202 24.3407 8.69819C24.8731 8.77436 25.2433 9.30423 25.1642 9.87688L25.3985 19.9448C25.4173 20.7261 25.7458 21.4593 26.3065 21.9531L30.1968 25.3955L27.6645 29.6805L25.4862 27.797C25.0865 27.4479 24.5897 27.2454 24.0742 27.2106L23.6755 27.1827C23.0079 27.1358 22.3836 26.8081 21.9469 26.2687L20.9883 25.0853C20.5093 24.4912 20.2971 23.7017 20.4052 22.919L21.2906 16.5054C21.3696 15.9327 21.8689 15.5272 22.4013 15.6034C22.9336 15.6796 23.3038 16.2095 23.2248 16.7821L22.595 21.3442" fill="#FFCEBF"/>
<path d="M23.2122 20.9266L23.7346 17.1422C23.8294 16.4557 23.3501 15.8196 22.6641 15.7214V15.7214" stroke="#D2A394" stroke-linecap="round"/>
<path d="M31.367 25.5334C31.7036 25.0971 31.6247 24.465 31.1906 24.1217L30.2519 23.3791C29.3837 22.6923 28.1341 22.843 27.4607 23.7156L24.7569 27.2196C24.0836 28.0922 24.2415 29.3563 25.1096 30.0431L26.0484 30.7857C26.4824 31.129 27.1073 31.0537 27.4439 30.6174L31.367 25.5334Z" fill="#B2C21D"/>
</svg>
